<svg width="24" height="24" viewBox="0 0 24 24" fill="none" xmlns="http://www.w3.org/2000/svg">
<path fill-rule="evenodd" clip-rule="evenodd" d="M10.5 6.47756L7.48807 3.28167C7.07857 2.89139 6.43237 2.90923 6.04473 3.32152L5.37161 4.03745L5.21219 4.21562C3.97479 5.6691 3.65068 7.78436 4.39793 9.65033C5.4982 12.3979 6.84212 14.6145 8.4297 16.3002C10.0173 17.9859 12.1043 19.4122 14.6906 20.5792C16.5203 21.4047 18.6036 20.9947 19.9716 19.5397L20.7205 18.7431C21.0935 18.3465 21.0932 17.7255 20.72 17.3291L17.708 14.1333C17.2985 13.743 16.6523 13.7608 16.2647 14.1731L14.8846 15.641L14.5945 15.5284C12.0033 14.471 9.95882 12.235 9.04461 9.44007L10.5006 7.89151C10.8735 7.49488 10.8732 6.87388 10.5 6.47756Z" fill="black"/>
</svg>
